Coordinates
version=1
nRows=27
nColumns=12
inDegrees=yes

Units are S.I. units (second, meters, Newtons, ...)
Angles are in degrees

endheader
time	SC_y	SC_z	SC_x	AC_y	AC_z	AC_x	GH_y	GH_z	GH_yy	EL_x	PS_y
       0.0              -32.55          36.64          33.96          60.45           1.93         -13.62         -39.58         0.8061         -10.59          81.88          9.775
   0.01221              -32.56          36.64          33.96          60.44          1.927         -13.62         -39.59         0.8079         -10.57          81.88          9.795
   0.02441              -32.56          36.64          33.96          60.44          1.925         -13.62          -39.6         0.8097         -10.54          81.88          9.816
   0.03662              -32.56          36.64          33.96          60.44          1.923         -13.62         -39.61         0.8117         -10.52          81.88          9.839
   0.04882              -32.56          36.64          33.96          60.43           1.92         -13.62         -39.62         0.8138         -10.49          81.88          9.863
   0.06103              -32.56          36.64          33.96          60.43          1.917         -13.62         -39.63          0.816         -10.46          81.88          9.889
   0.07323              -32.56          36.64          33.96          60.43          1.914         -13.62         -39.64         0.8184         -10.42          81.88          9.916
   0.08544              -32.56          36.64          33.96          60.42          1.911         -13.62         -39.65          0.821         -10.39          81.88          9.946
   0.09764              -32.56          36.64          33.96          60.42          1.907         -13.62         -39.66         0.8237         -10.35          81.88          9.977
    0.1098              -32.56          36.64          33.95          60.41          1.904         -13.62         -39.68         0.8267         -10.31          81.88          10.01
    0.1221              -32.56          36.64          33.95          60.41            1.9         -13.62          -39.7         0.8298         -10.27          81.88          10.05
    0.1343              -32.56          36.64          33.95           60.4          1.895         -13.63         -39.71         0.8332         -10.22          81.88          10.09
    0.1465              -32.56          36.64          33.95          60.39          1.891         -13.63         -39.73         0.8369         -10.17          81.88          10.13
    0.1587              -32.57          36.64          33.95          60.39          1.886         -13.63         -39.75         0.8408         -10.12          81.88          10.17
    0.1709              -32.57          36.64          33.95          60.38           1.88         -13.63         -39.77         0.8451         -10.06          81.88          10.22
    0.1831              -32.57          36.64          33.95          60.37          1.874         -13.63         -39.79         0.8497          -10.0          81.88          10.28
    0.1953              -32.57          36.64          33.95          60.37          1.868         -13.63         -39.82         0.8548         -9.931          81.88          10.33
    0.2075              -32.57          36.64          33.95          60.36          1.861         -13.63         -39.85         0.8603         -9.857          81.88           10.4
    0.2197              -32.57          36.64          33.95          60.35          1.853         -13.63         -39.88         0.8662         -9.775          81.88          10.46
    0.2319              -32.58          36.64          33.95          60.34          1.845         -13.63         -39.91         0.8728         -9.686          81.88          10.54
    0.2441              -32.58          36.64          33.95          60.32          1.836         -13.63         -39.94           0.88         -9.588          81.88          10.62
    0.2563              -32.58          36.64          33.95          60.31          1.826         -13.63         -39.98          0.888         -9.481          81.88          10.71
    0.2685              -32.58          36.65          33.94           60.3          1.814         -13.64         -40.03         0.8967         -9.362          81.88          10.81
    0.2807              -32.59          36.65          33.94          60.28          1.802         -13.64         -40.07         0.9064          -9.23          81.88          10.93
    0.2929              -32.59          36.65          33.94          60.26          1.788         -13.64         -40.13         0.9172         -9.083          81.88          11.05
    0.3051              -32.59          36.65          33.94          60.24          1.773         -13.64         -40.19         0.9293          -8.92          81.88          11.19
    0.3173               -32.6          36.65          33.94          60.22          1.756         -13.64         -40.25         0.9427         -8.736          81.88          11.34
